<?xml version="1.0" encoding="UTF-8" standalone="no"?>
<svg
   version="1.1"
   width="2650"
   height="3800"
   viewBox="0 0 2650 3800"
   overflow="visible"
   id="svg9823"
   xml:space="preserve"
   xmlns="http://www.w3.org/2000/svg"
   xmlns:svg="http://www.w3.org/2000/svg"><g
     id="layer4"
     style="display:inline"><path
       style="display:inline;opacity:0.611111;fill:#5bab14;fill-opacity:1;stroke:#fb9300;stroke-width:30;stroke-linecap:round;stroke-linejoin:round;stroke-dasharray:none;stroke-dashoffset:0;stroke-opacity:1;paint-order:markers stroke fill"
       d="M 2380.53,612.778 2368.5,589.251 2338.4,600.741 2313.78,605.665 2276.58,590.346 2248.13,547.67 2237.19,525.238 2214.75,512.654 2187.4,557.518 2255.24,596.911 2262.35,622.079 2257.98,629.739 2226.24,649.435 2152.38,659.283 H 2093.84 L 1956.51,555.33 1679.81,586.502 1667.04,511.061 1621.78,499.842 1487.53,512.609 1314.6,466.184 1120,470.826 1054.23,487.849 883.604,590.893 886.886,624.814 879.227,698.676 883.057,762.689 897.282,881.962 927.921,1038.99 948.164,1086.04 911.507,1107.92 789.498,1142.39 736.428,1143.49 615.13,1177.26 577.603,1193.51 536.982,1212.08 488.235,1283.26 487.849,1293.71 499.068,1361.41 527.31,1441.11 508.74,1511.13 460.767,1578.45 434.46,1601.66 372.947,1670.52 378.363,1681.36 419.372,1759.89 474.308,1862.8 506.419,1853.9 536.208,1901.87 577.99,1995.5 592.692,2024.9 616.291,2103.82 646.08,2228.78 664.263,2279.46 668.132,2355.68 672.775,2382.76 570.253,2410.61 589.597,2457.04 680.125,2578.52 736.996,2530.55 797.735,2593.99 829.072,2640.03 846.094,2670.59 879.752,2752.22 849.576,2775.44 894.454,2859.78 901.417,2894.21 923.544,2961.03 958.559,3023.4 967.313,3037.63 689.375,3188.63 844.758,3451.25 1125.98,3294.77 1157.71,3328.7 1198.2,3352.77 1384.22,3490.64 1352.49,3576 1389.65,3594.06 1428.34,3597.93 1584.64,3643.58 1593.15,3635.85 1802.83,3787.5 1862.41,3840.89 1900.33,3859.46 1914.25,3799.88 1920.44,3748.81 1919.67,3720.96 1900.33,3647.45 1873.25,3606.44 1833.01,3513.59 1802.83,3447.82 1778.07,3312.42 1711.53,2975.84 1710.76,2938.7 1698.38,2879.12 1627.97,2618.37 1648.08,2592.06 1621.78,2499.21 1646.54,2452.78 1740.16,2414.87 1823.73,2585.09 1867.06,2652.41 1972.29,2693.42 1990.08,2540.99 1949.85,2474.45 1934.37,2363.03 1963.77,2246.97 2045.79,2277.92 2084.48,2270.18 2132.45,2248.51 2172.69,2217.56 2194.35,2187.39 2212.92,2154.89 2221.43,2094.54 2212.92,2027.22 2188.94,1891.04 2141.74,1724.69 2037.28,1468.58 1985.44,1392.75 1967.64,1350.19 1959.91,1308.41 1964.55,1137.41 1997.82,1126.58 2125.49,873.562 2145.61,857.314 2226.08,817.079 2252.38,798.509 2280.24,741.251 2304.22,676.256 2318.15,643.759 2340.59,631.379 Z"
       id="path23120" /></g><defs
     id="defs9827" /><g
     id="layer15"
     style="display:inline"><path
       style="display:inline;fill:none;stroke:#241c1c;stroke-width:27.0167;stroke-linecap:round;stroke-dasharray:none;stroke-dashoffset:0;stroke-opacity:0.183071"
       d="M 1078.89,2172.35 981.688,2261.19 911.659,2344.81 866.715,2429.47 862.534,2503.68 872.986,2606.11 901.207,2726.31 923.156,2821.42 945.105,2905.04 989.004,2991.79 1023.5,3040.91 1061.12,3095.27 1097.71,3168.43 1155.19,3266.68 1221.04,3332.53 1295.25,3361.79 1355.87,3360.75 1405,3321.03 1426.95,3264.59 1425.9,3160.07 V 3024.19 L 1410.22,2892.49 1378.87,2734.67 1359.01,2650.01 1350.65,2612.38 1308.84,2501.59 1281.66,2440.96 1283.75,2397.07 1306.75,2362.57 1319.29,2340.63"
       id="path12880" /><path
       style="display:inline;fill:none;stroke:#241c1c;stroke-width:27.0167;stroke-linecap:round;stroke-dasharray:none;stroke-dashoffset:0;stroke-opacity:0.183071"
       d="M 2309.1,624.133 2221.83,667.248 2173.22,690.242 2157.02,696.513 2102.67,714.282 1981.43,724.734 1945.05,729.336 1887.88,738.322 1754.62,751.387 1627.63,764.974 1486,772.291 1305.7,781.698 1209.93,784.703 1174.92,790.582 1138.99,807.828 1111.55,825.858 1031.86,882.56 1006.77,908.691 991.095,930.64 989.004,968.267 994.23,1026.8 1000.5,1080.1 1010.95,1151.18 1017.22,1209.71 1024.67,1238.19 1035.25,1259.36 1053.15,1282.09 1068.57,1298.42 1085.42,1315.15 1109.73,1341.54 1141.24,1380.63 1160.83,1402.44 1182.44,1424.98 1194.45,1441.24 1194.64,1461.75 1182.63,1503.5 1177.09,1541.57 1175.05,1586.1 1178.19,1602.54 1164.15,1680.88 1151.77,1748.69 1141.98,1793.78 1122.76,1853.09 1099.67,1893.92 1071.95,1939.19 1045.9,1981.69 1025.58,2025.66 1021.33,2067.42 1026.87,2102.34 1035.92,2128.95 1054.58,2154.63 1091.17,2180.68 1140.13,2213.2 1201.47,2256.62 1227.71,2276.39 1270.21,2304.84 1290.9,2321.1 1317.14,2341.43 1342.27,2349.19 1373.31,2345.86 1400.66,2330.34 1427.26,2306.69 1450.54,2278.61 1480.11,2250.89 1513.36,2215.79 1543.67,2185.12 1576.92,2156.29 1604.11,2139.95 1635.99,2138.9 1679.36,2143.08 1741.55,2158.76 1837.19,2184.37 1911.92,2203.7 2008.08,2220.43 2074.45,2231.92 2123.58,2220.43 2162.77,2187.5 2186.81,2126.88 2188.38,2060.51 2139.78,1907.91 2109.99,1818.54 2091.7,1762.1 2068.7,1690.51 2034.21,1601.14 2016.44,1554.63 1951.64,1445.93 1915.06,1392.62 1913.49,1327.82 1908.26,1242.11 1921.85,1151.18 1940.67,1108.85 1964.71,1056.59 1992.93,1009.55 2014.35,935.866 2011.22,877.334 1996.58,829.255 1972.54,779.085 1945.14,729.328"
       id="path12774" /><path
       style="display:inline;fill:none;stroke:#241c1c;stroke-width:27.0167;stroke-linecap:round;stroke-dasharray:none;stroke-dashoffset:0;stroke-opacity:0.183071"
       d="M 1112.05,825.59 1064.75,761.66 1048.12,733.205 1031.12,689.97 1012.27,647.103 1000.82,590.934 995.274,539.199 1027.05,520.352 1058.46,502.984 1102.81,488.942 1143.46,483.029 1196.3,481.92 H 1260.97 L 1316.77,492.637 1389.64,506.84 1415.45,549.139 1418.15,620.84 1421.72,715.327 1449.06,738.748 1574.71,735.792 1701.09,725.445 1780.17,717.315 1859.25,740.227"
       id="path13049" /></g>

<g
     id="layer16"
     style="display:inline;stroke:#ce560c;stroke-width:6;stroke-dasharray:none;stroke-opacity:0.183071"><path
       style="display:inline;fill:none;stroke:#ce560c;stroke-width:10.8067;stroke-linecap:round;stroke-linejoin:round;stroke-dasharray:none;stroke-dashoffset:0;stroke-opacity:0.183071"
       d="M 2014.46,934.233 2054.37,913.539 2093.54,880.65 2135.29,850.348 2188.51,820.046 2232.85,797.135 2263.52,749.095 2291.98,687.383 2309.35,637.126 V 623.822 L 2349.34,614.465 2370.25,602.445"
       id="path13053" /><path
       style="display:inline;fill:none;stroke:#ce560c;stroke-width:10.8067;stroke-linecap:round;stroke-linejoin:round;stroke-dasharray:none;stroke-dashoffset:0;stroke-opacity:0.183071"
       d="M 1748.57,1981.87 1738.78,1990.74 1725.11,1993.88 1710.14,1990.92 1698.69,1976.51 1697.58,1963.76 1701.83,1951.2 1706.43,1948.77"
       id="path12936" /><path
       style="display:inline;fill:none;stroke:#ce560c;stroke-width:10.8067;stroke-linecap:round;stroke-linejoin:round;stroke-dasharray:none;stroke-dashoffset:0;stroke-opacity:0.183071"
       d="M 1068.07,1825 1054.03,1820.2 1044.05,1841.45 1028.53,1868.42 1010.24,1890.41 986.405,1907.22 955.733,1924.22 920.997,1932.72 877.576,1937.16 843.024,1929.95 807.918,1915.35 784.822,1900.57 768.563,1898.17 758.031,1906.85 754.89,1921.27 759.694,1935.31 767.824,1938.26 769.856,1946.21"
       id="path13043" /><path
       style="display:inline;fill:none;stroke:#ce560c;stroke-width:10.8067;stroke-linecap:round;stroke-linejoin:round;stroke-dasharray:none;stroke-dashoffset:0;stroke-opacity:0.183071"
       d="M 1423.29,1760.01 1423.81,1732.05 1415.97,1708.8 1406.3,1712.98"
       id="path12898" /><path
       style="display:inline;fill:none;stroke:#ce560c;stroke-width:10.8067;stroke-linecap:round;stroke-linejoin:round;stroke-dasharray:none;stroke-dashoffset:0;stroke-opacity:0.183071"
       d="M 1430.47,1788.49 1449.55,1791.76 1455.56,1814.1 1446.02,1824.82"
       id="path12894" /><path
       style="display:inline;fill:none;stroke:#ce560c;stroke-width:10.8067;stroke-linecap:round;stroke-linejoin:round;stroke-dasharray:none;stroke-dashoffset:0;stroke-opacity:0.183071"
       d="M 1455.56,1814.1 1464.31,1822.86 1455.3,1852.64 1446.94,1878.51 1443.8,1896.41 1448.24,1913.13 1458.3,1923.59 1473.72,1943.05 1494.75,1965.4 1507.04,1980.03 1507.56,1989.83 1500.89,1992.96"
       id="path12896" /><path
       style="display:inline;fill:none;stroke:#ce560c;stroke-width:10.8067;stroke-linecap:round;stroke-linejoin:round;stroke-dasharray:none;stroke-dashoffset:0;stroke-opacity:0.183071"
       d="M 1265.4,1880.25 1271.32,1878.77 1281.53,1864.03 1291.69,1854.56 1299.4,1847.27 1303.98,1842.37 1308.55,1831.56 1318.57,1808.6 1322.04,1800.98 1329.48,1791.11 1338.76,1782.48 1347.77,1777.78 1377.3,1766.54 1388.8,1763.54 1400.42,1759.75 1412.18,1758.84 1423.55,1759.49 1427.08,1777.91 1430.47,1788.49 1424.86,1796.2 1415.58,1798.29"
       id="path12892" /><path
       style="display:inline;fill:none;stroke:#ce560c;stroke-width:10.8067;stroke-linecap:round;stroke-linejoin:round;stroke-dasharray:none;stroke-dashoffset:0;stroke-opacity:0.183071"
       d="M 1415.97,1708.8 1412.05,1684.23 1404.74,1670.39 1433.48,1658.89 1445.76,1656.54 1461.96,1665.42 1481.04,1663.07 1492.27,1657.58 1501.68,1648.7 1510.3,1634.85 1512.65,1623.35 1522.32,1629.88"
       id="path12900" /><path
       style="display:inline;fill:none;stroke:#ce560c;stroke-width:10.8067;stroke-linecap:round;stroke-linejoin:round;stroke-dasharray:none;stroke-dashoffset:0;stroke-opacity:0.183071"
       d="M 1521.28,1720.03 1539.04,1712.46 1555.25,1697.82 1565.96,1689.98 1575.89,1688.94 1582.94,1689.72 1601.76,1686.59 1608.55,1680.84 1634.16,1675.61"
       id="path12902" /><path
       style="display:inline;fill:none;stroke:#ce560c;stroke-width:10.8067;stroke-linecap:round;stroke-linejoin:round;stroke-dasharray:none;stroke-dashoffset:0;stroke-opacity:0.183071"
       d="M 2003.77,1865.97 1988.88,1879.95 1974.37,1892.88"
       id="path13041" /><path
       style="display:inline;fill:none;stroke:#ce560c;stroke-width:10.8067;stroke-linecap:round;stroke-linejoin:round;stroke-dasharray:none;stroke-dashoffset:0;stroke-opacity:0.183071"
       d="M 1939.99,1750.54 1932.05,1734.83 1918.75,1716.91 1906.92,1699.36 1892.32,1678.3 1879.76,1659.26 1869.41,1646.33 1852.04,1629.33 1835.6,1611.78 1824.14,1595.33 1813.34,1577.69 1808.35,1569.74 1798.83,1558.2"
       id="path13037" /><path
       style="display:inline;fill:none;stroke:#ce560c;stroke-width:10.8067;stroke-linecap:round;stroke-linejoin:round;stroke-dasharray:none;stroke-dashoffset:0;stroke-opacity:0.183071"
       d="M 1601.5,1440.7 1631.62,1478.56 1653.05,1502.21 1679.29,1532.14 1711.44,1566.88 1739.52,1601.62 1742.21,1610.29"
       id="path12938" /><path
       style="display:inline;fill:none;stroke:#ce560c;stroke-width:10.8067;stroke-linecap:round;stroke-linejoin:round;stroke-dasharray:none;stroke-dashoffset:0;stroke-opacity:0.183071"
       d="M 1218.47,1582.03 1296.08,1562.82 1331.55,1489.65"
       id="path13023" /><path
       style="display:inline;fill:none;stroke:#ce560c;stroke-width:10.8067;stroke-linecap:round;stroke-linejoin:round;stroke-dasharray:none;stroke-dashoffset:0;stroke-opacity:0.183071"
       d="M 1396.72,1495.56 1426.15,1511.08 1462.37,1519.21 1505.97,1485.21"
       id="path13025" /><path
       style="display:inline;fill:none;stroke:#ce560c;stroke-width:10.8067;stroke-linecap:round;stroke-linejoin:round;stroke-dasharray:none;stroke-dashoffset:0;stroke-opacity:0.183071"
       d="M 1225.91,1546.56 1191.13,1571.68 1176.35,1592.38"
       id="path13021" /><path
       style="display:inline;fill:none;stroke:#ce560c;stroke-width:10.8067;stroke-linecap:round;stroke-linejoin:round;stroke-dasharray:none;stroke-dashoffset:0;stroke-opacity:0.183071"
       d="M 1244.34,1411.31 1261.35,1437.91 1278.37,1464.52 1331.55,1489.65 1396.72,1495.56 1456.21,1450.11"
       id="path13017" /><path
       style="display:inline;fill:none;stroke:#ce560c;stroke-width:10.8067;stroke-linecap:round;stroke-linejoin:round;stroke-dasharray:none;stroke-dashoffset:0;stroke-opacity:0.183071"
       d="M 1110.25,1342.45 1169.82,1390.53 1182.63,1403.99 1207.84,1423.85"
       id="path12874" /><path
       style="display:inline;fill:none;stroke:#ce560c;stroke-width:10.8067;stroke-linecap:round;stroke-linejoin:round;stroke-dasharray:none;stroke-dashoffset:0;stroke-opacity:0.183071"
       d="M 1152.7,1738.71 1197.78,1733.54 1200.74,1683.28 1209.6,1638.2 1218.47,1582.03 1225.91,1546.56 1228.08,1536.21 1235.47,1488.91 1238.43,1454.91 1261.35,1437.91"
       id="path13019" /><path
       style="display:inline;fill:none;stroke:#ce560c;stroke-width:10.8067;stroke-linecap:round;stroke-linejoin:round;stroke-dasharray:none;stroke-dashoffset:0;stroke-opacity:0.183071"
       d="M 1250.25,1153.37 1295.34,1217.67 1352.25,1262.01 1403.24,1280.49 1496.37,1291.58 1562.14,1275.32 1611.88,1245.76 1657.02,1206.87 1697.39,1151.89 1718.09,1078.72 1716.61,1006.29 1707.5,976.305 1692.22,930.908 1650.83,869.564 1588.75,822.264 1492.67,797.874 1454.24,801.57"
       id="path12950" /><path
       style="display:inline;fill:none;stroke:#ce560c;stroke-width:10.8067;stroke-linecap:round;stroke-linejoin:round;stroke-dasharray:none;stroke-dashoffset:0;stroke-opacity:0.183071"
       d="M 1137.95,905.163 1091.91,886.009 1065.3,899.312 1043.82,909.741 1045.72,919.637"
       id="path13045" /><path
       style="display:inline;fill:none;stroke:#ce560c;stroke-width:10.8067;stroke-linecap:round;stroke-linejoin:round;stroke-dasharray:none;stroke-dashoffset:0;stroke-opacity:0.183071"
       d="M 1091.91,886.009 1126.09,870.858"
       id="path13047" /><path
       style="display:inline;fill:none;stroke:#ce560c;stroke-width:10.8067;stroke-linecap:round;stroke-linejoin:round;stroke-dasharray:none;stroke-dashoffset:0;stroke-opacity:0.183071"
       d="M 1123.5,1850.68 1089.69,1836.09 1068.07,1825 1077.5,1809.48 1079.34,1768.28 1081.75,1723.75 1082.48,1688.83 1084.52,1641.53 1096.9,1614.37 1117.77,1581.11 1118.88,1523.83 1146.78,1527.16 1147.34,1461.01 1124.43,1452.88 1127.75,1417.22 1078.79,1376.2 1047.19,1347.93 1016.15,1321.51 1004.88,1303.4 979.467,1286.27 957.909,1273.47 944.713,1243.16 905.779,1256.88 823.861,1284.44 757.491,1311.62 733.451,1303.78 709.934,1299.08 664.99,1328.34 627.362,1353.95 583.986,1373.81 575.102,1332 563.605,1284.97 647.221,1264.58 729.793,1238.98 838.494,1209.19 925.769,1190.37 1012,1175.74"
       id="path12876" /><path
       style="display:inline;fill:none;stroke:#ce560c;stroke-width:10.8067;stroke-linecap:round;stroke-linejoin:round;stroke-dasharray:none;stroke-dashoffset:0;stroke-opacity:0.183071"
       d="M 1452.76,774.224 1454.24,801.57 1384.77,810.439 1304.95,856.261 1265.04,897.649 1230.3,961.21 1222.91,1016.64 1229.56,1106.07 1251.73,1151.15 1222.17,1158.54"
       id="path12948" /><path
       style="display:inline;fill:none;stroke:#ce560c;stroke-width:10.8067;stroke-linecap:round;stroke-linejoin:round;stroke-dasharray:none;stroke-dashoffset:0;stroke-opacity:0.183071"
       d="M 564.763,1285.66 531.505,1299.34 542.591,1348.48 553.677,1394.31 556.264,1501.84 519.31,1553.58 463.88,1632.29 435.056,1676.63 441.707,1720.61"
       id="path12878" /><path
       style="display:inline;fill:none;stroke:#ce560c;stroke-width:10.8067;stroke-linecap:round;stroke-linejoin:round;stroke-dasharray:none;stroke-dashoffset:0;stroke-opacity:0.183071"
       d="M 1190.2,2054.76 1185.58,2059.57 1166.18,2069.54 1149.65,2077.67 1131.26,2063.54"
       id="path12886" /><path
       style="display:inline;fill:none;stroke:#ce560c;stroke-width:10.8067;stroke-linecap:round;stroke-linejoin:round;stroke-dasharray:none;stroke-dashoffset:0;stroke-opacity:0.183071"
       d="M 2035.26,2169.73 2068.7,2162.94 2092.74,2150.92 2089.09,2142.04"
       id="path12924" /><path
       style="display:inline;fill:none;stroke:#ce560c;stroke-width:10.8067;stroke-linecap:round;stroke-linejoin:round;stroke-dasharray:none;stroke-dashoffset:0;stroke-opacity:0.183071"
       d="M 1759.85,1872.49 1814.17,1894.29 1851.12,1910.92 1862.95,1915.35 1867.01,1906.48 1892.51,1850.68"
       id="path12908" /><path
       style="display:inline;fill:none;stroke:#ce560c;stroke-width:10.8067;stroke-linecap:round;stroke-linejoin:round;stroke-dasharray:none;stroke-dashoffset:0;stroke-opacity:0.183071"
       d="M 1705.89,1631.24 1709.94,1649.48 1714.12,1666.73 1725.61,1681.36 1742.86,1694.69 1760.63,1706.97 1772.91,1720.56 1779.18,1738.32 1781.53,1762.1 1784.67,1782.22 1791.98,1797.64 1794.86,1802.87 V 1816.71 L 1800.61,1833.96 1812.11,1849.12 1819.94,1855.91 1841.89,1868.45 1851.56,1878.9 1865.67,1906.34 1875.08,1922.02 1877.95,1946.06 1888.41,1966.96 1902.52,1987.61 1910.35,2005.64 1915.32,2025.49 1919.12,2038.41"
       id="path12918" /><path
       style="display:inline;fill:none;stroke:#ce560c;stroke-width:10.8067;stroke-linecap:round;stroke-linejoin:round;stroke-dasharray:none;stroke-dashoffset:0;stroke-opacity:0.183071"
       d="M 2028.99,1941.09 2020.62,1912.61 2003.77,1865.97 1991.62,1828.21 1985.35,1819.85 1966.01,1822.72 1956.61,1797.12 1944.59,1767.59 1939.36,1750.08 1923.94,1759.75 1917.67,1762.89 1902.78,1759.75 1883.7,1767.59 1880.04,1777.26 1858.62,1788.49"
       id="path12932" /><path
       style="display:inline;fill:none;stroke:#ce560c;stroke-width:10.8067;stroke-linecap:round;stroke-linejoin:round;stroke-dasharray:none;stroke-dashoffset:0;stroke-opacity:0.183071"
       d="M 1922.9,2060.25 1923.94,2068.35 1929.95,2075.14 1942.49,2083.5 1946.41,2090.3 1948.77,2108.33 1950.86,2120.61 1953.21,2127.4 1968.36,2146.22 1982.47,2151.97 1976.2,2168.17 1964.97,2193.51 1959.48,2212.59"
       id="path12920" /><path
       style="display:inline;fill:none;stroke:#ce560c;stroke-width:10.8067;stroke-linecap:round;stroke-linejoin:round;stroke-dasharray:none;stroke-dashoffset:0;stroke-opacity:0.183071"
       d="M 1739.52,1601.62 1749.87,1590.16 1775,1571.31 1798.83,1558.2 1848.51,1527.49 1844.1,1517.36 1777.21,1442.72 1715.87,1371.03 1653.79,1409.09 1601.5,1440.7"
       id="path12940" /><path
       style="display:inline;fill:none;stroke:#ce560c;stroke-width:10.8067;stroke-linecap:round;stroke-linejoin:round;stroke-dasharray:none;stroke-dashoffset:0;stroke-opacity:0.183071"
       d="M 1586.86,1576.58 1600.45,1604.28 1613.52,1631.45 1623.71,1653.92 1634.16,1675.61 1653.49,1713.24 1664.47,1740.94 1683.54,1784.31 1705.76,1833.96 1713.07,1848.59 1679.89,1870.54 1650.62,1889.36 1632.59,1900.07 1614.3,1939.79 1590.26,1947.1"
       id="path12904" /><path
       style="display:inline;fill:none;stroke:#ce560c;stroke-width:10.8067;stroke-linecap:round;stroke-linejoin:round;stroke-dasharray:none;stroke-dashoffset:0;stroke-opacity:0.183071"
       d="M 1601.5,1440.7 1578.5,1450.11 1521.01,1490.87 1482.28,1473.27 1456.21,1450.11"
       id="path12946" /><path
       style="display:inline;fill:none;stroke:#ce560c;stroke-width:10.8067;stroke-linecap:round;stroke-linejoin:round;stroke-dasharray:none;stroke-dashoffset:0;stroke-opacity:0.183071"
       d="M 1862.58,1915.72 1851.49,1948.24 1836.34,1976.7 1819.71,2011.43 1803.45,2048.76 1790.52,2076.84 1778.32,2103.08"
       id="path12910" /><path
       style="display:inline;fill:none;stroke:#ce560c;stroke-width:10.8067;stroke-linecap:round;stroke-linejoin:round;stroke-dasharray:none;stroke-dashoffset:0;stroke-opacity:0.183071"
       d="M 1957.92,1961.55 1941.29,1992.22 1919.12,2038.41 1912.09,2055.78 1896.39,2091.44 1880.31,2125.25"
       id="path12914" /><path
       style="display:inline;fill:none;stroke:#ce560c;stroke-width:10.8067;stroke-linecap:round;stroke-linejoin:round;stroke-dasharray:none;stroke-dashoffset:0;stroke-opacity:0.183071"
       d="M 1996.9,2089.96 2020.1,2075.66"
       id="path12926" /><path
       style="display:inline;fill:none;stroke:#ce560c;stroke-width:10.8067;stroke-linecap:round;stroke-linejoin:round;stroke-dasharray:none;stroke-dashoffset:0;stroke-opacity:0.183071"
       d="M 1726.4,1966.18 1748.57,1981.87 1765.76,1992.59 1788.3,1999.24 1819.71,2011.43 1843.73,2023.26 1866.27,2032.87 1885.12,2041.37 1912.09,2055.78"
       id="path12912" /><path
       style="display:inline;fill:none;stroke:#ce560c;stroke-width:10.8067;stroke-linecap:round;stroke-linejoin:round;stroke-dasharray:none;stroke-dashoffset:0;stroke-opacity:0.183071"
       d="M 1707.5,976.305 1783.13,953.819 1853.34,887.302 1913.2,825.959 1974.98,783.22"
       id="path13015" /><path
       style="display:inline;fill:none;stroke:#ce560c;stroke-width:10.8067;stroke-linecap:round;stroke-linejoin:round;stroke-dasharray:none;stroke-dashoffset:0;stroke-opacity:0.183071"
       d="M 2099.28,1910.52 2073.15,1847.81 2049.11,1779.35 2037.61,1734.4 2020.89,1713.5 1955.04,1641.9 1920.55,1605.84 1887.1,1564.04 1848.51,1527.49"
       id="path13027" /><path
       style="display:inline;fill:none;stroke:#ce560c;stroke-width:10.8067;stroke-linecap:round;stroke-linejoin:round;stroke-dasharray:none;stroke-dashoffset:0;stroke-opacity:0.183071"
       d="M 1966.8,1975.33 2011.22,1952.85 2029.77,1942.14 2096.92,1907.39 2132.46,1887.01"
       id="path12928" /><path
       style="display:inline;fill:none;stroke:#ce560c;stroke-width:10.8067;stroke-linecap:round;stroke-linejoin:round;stroke-dasharray:none;stroke-dashoffset:0;stroke-opacity:0.183071"
       d="M 1715.87,1371.03 1711.81,1356.61 1752.08,1347.01 1825.25,1338.14 1873.29,1332.96 1912.83,1329.27"
       id="path12942" /><path
       style="display:inline;fill:none;stroke:#ce560c;stroke-width:10.8067;stroke-linecap:round;stroke-linejoin:round;stroke-dasharray:none;stroke-dashoffset:0;stroke-opacity:0.183071"
       d="M 1912.09,2055.78 1922.9,2060.25 1954.78,2073.52 1987.69,2089.1 1996.9,2089.96 1992.47,2069.82 1979.72,2023.63 1971.04,1983.35 1966.8,1975.33 1957.92,1961.55 1940.36,1943.62 1928.91,1923.67 1916.9,1894.1 1901.56,1863.06 1891.95,1850.13 1873.66,1825.93 1860.73,1792.85 1850.2,1772.34 1837.26,1734.65 1823.96,1710.45 1804.19,1687.53 1778.88,1660.74 1762.15,1637.74 1742.21,1610.29 1729.53,1617.21 1705.89,1631.24 1676.49,1648.7 1634.16,1675.61"
       id="path12916" /><path
       style="display:inline;fill:none;stroke:#ce560c;stroke-width:10.8067;stroke-linecap:round;stroke-linejoin:round;stroke-dasharray:none;stroke-dashoffset:0;stroke-opacity:0.183071"
       d="M 1666.04,1880.21 1686.42,1913.13 1702.62,1942.14 1706.43,1948.77 1714.38,1960.69 1726.4,1966.18 1742.34,1920.71 1754.88,1885.44 1759.85,1872.49 1726.66,1858.78 1713.07,1848.59"
       id="path12906" /><path
       style="display:inline;fill:none;stroke:#ce560c;stroke-width:10.8067;stroke-linecap:round;stroke-linejoin:round;stroke-dasharray:none;stroke-dashoffset:0;stroke-opacity:0.183071"
       d="M 1844.1,1517.36 1880.04,1496.62 1929.17,1462.13 1952.69,1448.02"
       id="path13029" /><path
       style="display:inline;fill:none;stroke:#ce560c;stroke-width:10.8067;stroke-linecap:round;stroke-linejoin:round;stroke-dasharray:none;stroke-dashoffset:0;stroke-opacity:0.183071"
       d="M 1996.9,2089.96 2016.44,2132.11 2035.26,2169.73 2065.57,2212.59 2073.41,2231.92"
       id="path12922" /><path
       style="display:inline;fill:none;stroke:#ce560c;stroke-width:10.8067;stroke-linecap:round;stroke-linejoin:round;stroke-dasharray:none;stroke-dashoffset:0;stroke-opacity:0.183071"
       d="M 1129.05,1834.42 1160.46,1846.25 1215.89,1863.25 1265.4,1880.25 1259.86,1893.55 1228.45,1934.2 1197.78,1974.48 1144.57,2046.17 1131.26,2062.8"
       id="path12882" /><path
       style="display:inline;fill:none;stroke:#ce560c;stroke-width:10.8067;stroke-linecap:round;stroke-linejoin:round;stroke-dasharray:none;stroke-dashoffset:0;stroke-opacity:0.183071"
       d="M 1193.35,1979.65 1212.56,1991.48 1222.91,2001.83 1202.95,2029.17 1189.28,2048.02 1190.02,2057.26 1217,2086.08 1229.93,2101.6 1232.15,2114.9 1238.8,2125.99 1253.21,2133.01 1274.64,2148.9 1284.62,2161.46 1289.79,2171.81 1304.95,2182.53 1326.75,2200.27 1343.01,2222.81 1353.72,2233.52 1365.55,2242.02 1368.87,2244.4 1379.91,2257.47 1390.23,2281.24 1404.74,2299.99 1417.54,2315.15"
       id="path12884" /><path
       style="display:inline;fill:none;stroke:#ce560c;stroke-width:10.8067;stroke-linecap:round;stroke-linejoin:round;stroke-dasharray:none;stroke-dashoffset:0;stroke-opacity:0.183071"
       d="M 1160.18,2072.5 1176.53,2086.08 1196.67,2101.41 1208.77,2096.8 1218.1,2086.82 1229.65,2077.03 1224.57,2070 1214.32,2056.24 1233.62,2032.13"
       id="path12888" /><path
       style="display:inline;fill:none;stroke:#ce560c;stroke-width:10.8067;stroke-linecap:round;stroke-linejoin:round;stroke-dasharray:none;stroke-dashoffset:0;stroke-opacity:0.183071"
       d="M 1042.94,1987.78 1062.9,2001.46 1112.79,2038.78 1136.81,2056.52"
       id="path12890" /><path
       style="display:inline;fill:none;stroke:#ce560c;stroke-width:10.8067;stroke-linecap:round;stroke-linejoin:round;stroke-dasharray:none;stroke-dashoffset:0;stroke-opacity:0.183071"
       d="M 1976.02,2002.19 2000.41,1995.73"
       id="path12930" /><path
       style="display:inline;fill:none;stroke:#ce560c;stroke-width:10.8067;stroke-linecap:round;stroke-linejoin:round;stroke-dasharray:none;stroke-dashoffset:0;stroke-opacity:0.183071"
       d="M 1849.21,1771.51 1830.66,1779.61 1791.72,1798.16 1752.01,1816.19 1726.66,1836.05 1713.07,1848.59"
       id="path12934" /><path
       style="display:inline;fill:none;stroke:#ce560c;stroke-width:10.8067;stroke-linecap:round;stroke-linejoin:round;stroke-dasharray:none;stroke-dashoffset:0;stroke-opacity:0.183071"
       d="M 1938.84,1751.39 1952.95,1748.51 1963.4,1743.81 1978.55,1747.21 1999.98,1740.68 2001.55,1728.92 2020.89,1713.5 2041.01,1696.52 2064.26,1678.49"
       id="path13031" /><path
       style="display:inline;fill:none;stroke:#ce560c;stroke-width:10.8067;stroke-linecap:round;stroke-linejoin:round;stroke-dasharray:none;stroke-dashoffset:0;stroke-opacity:0.183071"
       d="M 2048.06,1778.3 2034.21,1781.7"
       id="path13033" /><path
       style="display:inline;fill:none;stroke:#ce560c;stroke-width:10.8067;stroke-linecap:round;stroke-linejoin:round;stroke-dasharray:none;stroke-dashoffset:0;stroke-opacity:0.183071"
       d="M 2072.62,1846.76 2056.68,1852.25"
       id="path13035" /><path
       style="display:inline;fill:none;stroke:#ce560c;stroke-width:10.8067;stroke-linecap:round;stroke-linejoin:round;stroke-dasharray:none;stroke-dashoffset:0;stroke-opacity:0.183071"
       d="M 1113.51,824.943 1126.09,870.858 1137.95,905.163 C 1137.56,903.984 1150.14,942.355 1156.24,960.951 L 1173.61,1010.6 1193.86,1071.22 1202.75,1099.05 1215.81,1139.42 1229.66,1174.96 1239.2,1201.74 1244.95,1226.3 1247.56,1262.62 1248.61,1303.52 1246.26,1332.52 1244.17,1390.92 1244.34,1411.31 1207.84,1423.85 1186.81,1430.77"
       id="path12872" /><path
       style="display:inline;fill:none;stroke:#cd530b;stroke-width:10.8067;stroke-linecap:round;stroke-dasharray:none;stroke-dashoffset:0;stroke-opacity:0.180392"
       d="M 1421.72,715.327 1366.59,700.955 1363.28,584.562"
       id="path13051" /><path
       style="display:inline;fill:none;stroke:#cd530b;stroke-width:10.8067;stroke-linecap:round;stroke-dasharray:none;stroke-dashoffset:0;stroke-opacity:0.180392"
       d="M 1712.17,1357.35 1692.59,1340.72 1651.57,1291.58 1630.51,1264.6 1611.88,1245.76"
       id="path12944" /><path
       style="display:inline;fill:none;stroke:#cd530b;stroke-width:10;stroke-linecap:round;stroke-dasharray:none;stroke-dashoffset:0;stroke-opacity:0.180392"
       d="M 1955.24,1793.41 1945.35,1799.97 1932.51,1807.08"
       id="path13039" /></g>



TO BE CONTINUED..


<g
     id="layer17"
     style="display:inline"><path
       d="M 1589.22,1262.48 1505.64,1395.41 1523.5,1414.46 1539.81,1399.19 1562.74,1423.67 1674.73,1351.13 1592.36,1263.13 1591.03,1264.39 Z"
       stroke="#ff0000"
       stroke-width="1.44"
       fill="none"
       id="Aahar_Dining_Hall"
       style="display:inline;fill:#e1ba14;fill-opacity:1;stroke-width:1.35084;stroke-dasharray:none" /><path
       d="M 1306.34,1332.55 1350.37,1460.21 1380.06,1465.96 1392.2,1403.35 1384.56,1401.86 1381.23,1392.21 1473.89,1360.25 1441.58,1310.54 1395.96,1301.64 Z"
       stroke="#ff0000"
       stroke-width="1.44"
       fill="none"
       id="Vivekanand_Library"
       style="display:inline;fill:#e1ba14;fill-opacity:1;stroke-width:1.35084;stroke-dasharray:none" /><path
       d="M 1634.78,1235.47 1716.35,1334.43 1868.53,1320.35 1861.65,1254.15 1864.35,1187.65 1717.07,1105.38 1704.68,1142.21 1686.31,1177 1662.75,1208.5 Z"
       stroke="#ff0000"
       stroke-width="1.44"
       fill="none"
       id="path9301"
       style="display:inline;fill:#e1ba14;fill-opacity:1;stroke-width:1.35084;stroke-dasharray:none" /><path
       d="M 1748.38,1488.8 1755.06,1498.54 1756.25,1507.15 1753.62,1511.74 1748.97,1514.28 1737.66,1513.89 1727.72,1509.86 1716.82,1507.71 1702.43,1511.44 1693.66,1517.1 1683.14,1527.14 1736.43,1586.92 1836.18,1523.89 1711.6,1384.09 1616.79,1443.99 1637.25,1465.27 1647.46,1471.59 1658.84,1475.45 1675.67,1473.82 1690.6,1465.62 1702.32,1462.71 1714.3,1464.15 1725.21,1469.69 1738.27,1479.02 Z"
       stroke="#ff0000"
       stroke-width="1.44"
       fill="none"
       id="path9303"
       style="display:inline;fill:#e1ba14;fill-opacity:1;stroke-width:1.35084;stroke-dasharray:none" /><path
       d="M 1067.07,1125.76 1063.14,1129.42 1062.88,1134.78 1066.55,1138.71 1071.91,1138.98 1102.07,1127.92 1104.9,1136.93 1048.95,1157.11 1053.42,1195.46 1123.25,1169.86 1134.38,1200.21 1061.59,1226.89 1061.95,1227.61 1084.59,1258.44 1147.29,1235.46 1148.84,1239.65 1126.98,1247.66 1134.99,1269.53 1156.86,1261.51 1158.41,1265.76 1109.4,1283.78 1138.22,1313.2 1171.33,1301 1181.38,1328.42 1208.21,1318.58 1198.16,1291.17 1225.33,1281.26 1229.96,1271.18 1222.43,1250.62 1212.41,1246.02 1185.26,1255.97 1174.13,1225.62 1201.28,1215.66 1205.92,1205.58 1198.38,1185.02 1188.36,1180.42 1161.21,1190.37 1150.08,1160.02 1177.24,1150.07 1181.87,1139.98 1174.33,1119.42 1164.31,1114.82 1137.16,1124.77 1126.03,1094.42 1153.19,1084.47 1157.82,1074.38 1150.28,1053.82 1140.27,1049.22 1113.11,1059.18 1101.98,1028.83 1129.14,1018.87 1133.77,1008.78 1126.23,988.225 1116.22,983.623 1089.06,993.577 1077.94,963.227 1105.09,953.272 1109.72,943.188 1102.19,922.626 1092.17,918.026 1056.48,931.054 1052.89,921.263 1042.84,924.948 1046.43,934.739 1038.17,937.766 1033.57,941.057 1032.31,942.188 1027.87,948.242 1026.96,950.407 1025.77,957.305 1025.82,958.955 1028.43,981.321 1051.09,973.012 1062.24,1003.41 1032.3,1014.39 1036.77,1052.73 1075.16,1038.66 1076.7,1042.85 1054.83,1050.87 1062.85,1072.73 1084.71,1064.72 1086.29,1069.01 1040.62,1085.75 1045.1,1124.1 1099.21,1104.26 1102.35,1112.82 Z"
       stroke="#ff0000"
       stroke-width="1.44"
       fill="none"
       id="APJ_Academic_Block"
       style="display:inline;fill:#e1ba14;fill-opacity:1;stroke-width:1.35084;stroke-dasharray:none" /><path
       d="M 1873.72,1516.13 1897.6,1552.26 1908.33,1545.16 1909.83,1547.42 1906.75,1549.46 1910.4,1555 1921.84,1547.44 1916.69,1539.64 1945.83,1520.37 1950.98,1528.17 1962.42,1520.61 1958.76,1515.07 1955.67,1517.11 1954.17,1514.85 1964.92,1507.75 1941.04,1471.62 Z"
       stroke="#ff0000"
       stroke-width="1.44"
       fill="none"
       id="path9255"
       style="display:inline;fill:#e1ba14;fill-opacity:1;stroke-width:1.35084;stroke-dasharray:none" /><path
       d="M 1948.53,1658.55 1848.39,1552.73 1842.84,1551.7 1837.19,1555.38 1840.45,1558.84 1824.35,1574.07 1973.28,1731.45 1996.64,1709.35 1973.34,1684.72 Z"
       stroke="#ff0000"
       stroke-width="1.44"
       fill="none"
       id="path9265"
       style="display:inline;fill:#e1ba14;fill-opacity:1;stroke-width:1.35084;stroke-dasharray:none" /><path
       d="M 1770.51,1599.43 1768.82,1602 1769.47,1605.01 1779.72,1623.18 1782.85,1628 1789.51,1637.39 1807.58,1657.55 1814.01,1663.53 1814.55,1664.07 1823.84,1673.27 1830.31,1680.09 1838.49,1691.17 1842.29,1697.4 1845.94,1704.11 1849.42,1711.38 1851.18,1715.51 1853.47,1721.47 1855.18,1729.1 1855.54,1731.41 1858.42,1741.02 1870.64,1767.58 1871.95,1766.81 1899.74,1754.02 1885.64,1723.32 1870.64,1730.21 1868.47,1725.47 1883.48,1718.58 1877.73,1706.09 1867.99,1711.46 1865.47,1706.89 1879.93,1698.93 1863.63,1669.33 1848.23,1677.82 1850.37,1681.72 1846.36,1683.93 1843.49,1678.75 1839.31,1674.61 1842.56,1671.35 1845.71,1674.48 1858.08,1661.99 1847.94,1651.93 1834.09,1638.2 1822.47,1649.93 1818.76,1646.26 1829.52,1635.5 1795.44,1583.19 Z"
       stroke="#ff0000"
       stroke-width="1.44"
       fill="none"
       id="path9267"
       style="display:inline;fill:#e1ba14;fill-opacity:1;stroke-width:1.35084;stroke-dasharray:none" /><path
       d="M 1876.87,1792.11 1880.07,1796.27 1885.93,1803.82 1890.02,1808.72 1894.73,1814.56 1890.25,1818.13 1897.26,1826.8 1901.45,1823.41 1906.86,1831.18 1901.27,1834.51 1906.77,1843.74 1912.69,1840.21 1919.25,1851.07 1918.35,1851.61 1923.16,1859.66 1924.06,1859.12 1928,1866.14 1931.26,1873.51 1930.29,1873.92 1933.93,1882.57 1934.77,1882.21 1938.86,1893.92 1933.24,1896.27 1937.51,1906.47 1941.73,1904.7 1948.43,1921.29 1942.55,1926.46 1949.67,1934.51 1954.78,1929.99 1963.27,1939.43 1962.49,1940.11 1968.71,1947.17 1969.48,1946.47 1971.75,1949.03 1976.9,1949.61 2000.32,1932.86 1975.84,1905.12 1963.45,1916.05 1960.01,1912.14 1972.38,1901.21 1965.81,1893.75 1958.01,1897.01 1956.01,1892.2 1971.23,1885.83 1958.19,1854.67 1941.96,1861.46 1943.67,1865.57 1939.44,1867.33 1936.84,1861.24 1933.89,1856.2 1937.84,1853.86 1940.12,1857.68 1955.22,1848.65 1937.89,1819.64 1923.71,1828.11 1921.05,1823.64 1935.21,1815.18 1927.15,1801.62 1914.29,1812 1911.03,1807.94 1923.86,1797.57 1902.59,1771.24 Z"
       stroke="#ff0000"
       stroke-width="1.44"
       fill="none"
       id="path9277"
       style="display:inline;fill:#e1ba14;fill-opacity:1;stroke-width:1.35084;stroke-dasharray:none" /><path
       d="M 2015.18,1741.67 1984.28,1750.4 1988.16,1764.15 1985.15,1765 1986.57,1770.02 1989.58,1769.17 2010.15,1841.99 2007.14,1842.84 2008.78,1848.63 2011.79,1847.78 2015.67,1861.53 2018.29,1870.86 2034.19,1866.35 2035.8,1872.16 2016.94,1877.49 2022.02,1895.49 2025.03,1894.64 2028.92,1908.39 2045.84,1903.61 2044.63,1899.33 2049.05,1898.08 2050.97,1904.87 2057.04,1901.03 C 2058.56,1900.19 2059.43,1897.9 2058.87,1896.26 L 2058.02,1893.27 2059.03,1892.98 2056.29,1883.32 2055.29,1883.6 2038.46,1824.06 2029.45,1792.15 2026.86,1782.98 2023.3,1770.4 2019.74,1757.81 2020.75,1757.53 2018.02,1747.86 2017.01,1748.14 Z"
       stroke="#000000"
       stroke-width="1.44"
       fill="none"
       id="path8851"
       style="display:inline;fill:#e1ba14;fill-opacity:1;stroke:#ff0000;stroke-width:1.35084;stroke-dasharray:none;stroke-opacity:1" /><path
       d="M 2014.56,1966.68 2017.66,1987.38 2004.35,1989.37 2010.82,2004.99 2008.4,2005.98 2017.79,2028.62 2020.2,2027.63 2024.38,2037.75 2021.98,2038.74 2031.15,2060.9 2021.03,2065.09 2026.29,2077.77 2031.08,2075.79 2033.6,2090.36 2038.86,2088.18 2040.86,2093.01 2038.45,2094 2047.83,2116.64 2050.22,2115.65 2054.42,2125.75 2052.01,2126.76 2061.39,2149.4 2063.79,2148.39 2065.98,2153.71 2083.65,2146.38 2080.29,2137.91 2097.49,2135.34 2098.49,2142.04 2115.86,2139.43 2113.23,2121.9 2119.24,2121 2115.61,2096.76 2109.59,2097.66 2104.4,2063.11 2110.42,2062.21 2106.78,2037.97 2100.76,2038.87 2095.58,2004.32 2101.59,2003.42 2097.95,1979.18 2091.94,1980.08 2089.31,1962.56 2072.45,1965.08 2071.77,1960.45 2066.09,1961.29 2065.7,1958.72 2041.47,1962.36 2041.85,1964.93 2036.18,1965.78 2037.78,1976.44 2031.26,1977.41 2028.81,1961.13 Z"
       stroke="#ff0000"
       stroke-width="1.44"
       fill="none"
       id="G_Block"
       style="display:inline;fill:#e1ba14;fill-opacity:1;stroke-width:1.35084;stroke-dasharray:none" /><path
       d="M 1424.52,1680.77 1447.26,1726.18 1470.1,1714.74 1468.31,1711.16 1470.52,1710.06 1461.68,1692.4 1463.55,1691.46 1464.49,1693.33 1470.08,1690.53 1469.15,1688.66 1477.54,1684.46 1478.47,1686.33 1484.07,1683.53 1483.13,1681.66 1486.72,1679.87 1524.73,1715.97 1563.86,1674.81 1525.32,1638.17 1523.88,1639.68 1516.93,1633.07 1507.42,1643.07 1508.93,1644.51 1491.69,1662.65 1490.18,1661.21 1485.87,1665.74 1487.38,1667.18 1479.85,1675.11 1478.93,1673.27 1473.33,1676.07 1474.27,1677.94 1465.88,1682.14 1464.94,1680.27 1459.35,1683.08 1460.28,1684.94 1458.41,1685.88 1449.57,1668.22 Z"
       stroke="#ff0000"
       stroke-width="1.44"
       fill="none"
       id="Chanakya"
       style="display:inline;fill:#e1ba14;fill-opacity:1;stroke-width:1.35084;stroke-dasharray:none" /><path
       d="M 1578.37,1894.15 1538.64,1907.3 1550.66,1943.61 1559.41,1940.71 1566.42,1961.89 1558.5,1964.5 1553.73,1950.09 1551.95,1950.67 1550.42,1946.31 1525.68,1954.5 1530.68,1969.62 1535.6,1984.48 1539.04,1994.87 1541.22,1994.15 1543.92,2002.31 1566.16,1994.94 1564.91,1991.16 1567.09,1990.45 1560.97,1971.98 1568.89,1969.35 1575.9,1990.53 1567.16,1993.43 1579.18,2029.72 1618.91,2016.57 1606.88,1980.26 1598.15,1983.16 1581.65,1933.34 1590.4,1930.44 Z"
       stroke="#ff0000"
       stroke-width="1.44"
       fill="none"
       id="path9237"
       style="display:inline;fill:#e1ba14;fill-opacity:1;stroke-width:1.35084;stroke-dasharray:none" /><path
       d="M 1523.23,2137.5 1539.62,2122.84 1557.69,2110.55 1576.88,2100.99 1596.63,2094.47 1604.45,2093.3 1606.38,2092.99 1612.81,2092.47 1620.61,2092.31 1628.8,2092.18 H 1630.46 L 1636.22,2092.25 1637.9,2092.31 1639.16,2092.34 1639.62,2092.36 1645.42,2092.61 1647.1,2092.72 1653.87,2093.23 1655.56,2093.37 1662.39,2094.09 1664.1,2094.31 1671.02,2095.24 1672.75,2095.51 1679.72,2096.68 1678.78,2093.86 1683.48,2094.72 1661.8,2029.31 1660.09,2029.88 1659.53,2028.17 1583.04,2053.51 1504,2079.79 1442.4,2100.32 1442.97,2102.03 1441.26,2102.59 1467.95,2182.74 1471.9,2181.43 1473.41,2185.91 1478.35,2180.96 1479.59,2179.73 1484.65,2174.71 1485.79,2173.59 1490.76,2168.71 1492,2167.49 1498.22,2161.42 1504.46,2155.38 1509.31,2150.72 1510.7,2149.39 1516.96,2143.42 Z"
       stroke="#ff0000"
       stroke-width="1.44"
       fill="none"
       id="Chadragupta"
       style="display:inline;fill:#e1ba14;fill-opacity:1;stroke-width:1.35084;stroke-dasharray:none" /><path
       d="M 1520.08,1597.05 1520.65,1600.94 1522.72,1600.63 1526.29,1624.73 1539.97,1610.16 1542.69,1609.76 1548.23,1647.13 1586.99,1641.39 1579.11,1588.3 Z"
       stroke="#ff0000"
       stroke-width="1.44"
       fill="none"
       id="Kabeer"
       style="display:inline;fill:#e1ba14;fill-opacity:1;stroke-width:1.35084;stroke-dasharray:none" /><path
       d="M 1309.63,1751.3 1300.06,1752.7 1293.76,1760.03 1294,1769.69 1300.53,1776.83 1310.15,1777.74 1318.01,1772.11 1320.07,1762.66 1315.42,1754.18 1319.05,1746.89 1325.59,1744.7 1326.91,1748.64 1324.87,1749.32 1327.69,1757.74 1335.19,1755.23 1335.87,1757.27 1378.88,1742.86 1377.94,1740.06 1380.66,1739.15 1382.96,1746.01 1409.53,1737.11 1399.61,1707.51 1394.66,1692.74 1368.1,1701.64 1370.4,1708.5 1367.68,1709.41 1366.74,1706.61 1305.35,1727.17 1308.86,1737.64 1310.9,1736.95 1313.26,1744 Z"
       stroke="#ff0000"
       stroke-width="1.44"
       fill="none"
       id="path9291"
       style="display:inline;fill:#e1ba14;fill-opacity:1;stroke-width:1.35084;stroke-dasharray:none" /><path
       d="M 1491.91,1982.57 1488.41,1972.19 1486.24,1972.93 1484.76,1968.54 1462.56,1976.03 1464.04,1980.4 1461.86,1981.13 1466.6,1995.19 1463.14,1996.36 1455.91,1974.88 1459.86,1973.56 1447.88,1937.97 1445.41,1938.8 1446.57,1942.28 1422.86,1950.25 1421.69,1946.8 1419.22,1947.62 1430.37,1980.73 1406.65,1988.73 1405.49,1985.27 1403.01,1986.1 1423.98,2048.36 1426.45,2047.51 1425.29,2044.06 1449,2036.08 1460.15,2069.18 1462.62,2068.35 1461.46,2064.89 1485.18,2056.9 1486.34,2060.36 1488.81,2059.53 1476.83,2023.96 1472.88,2025.29 1465.65,2003.8 1467.38,2003.22 1469.11,2002.65 1475.41,2021.36 1477.59,2020.64 1478.77,2024.15 1500.97,2016.68 1498.22,2008.5 1500.39,2007.76 1496.89,1997.37 1495.42,1992.83 Z"
       stroke="#ff0000"
       stroke-width="1.44"
       fill="none"
       id="path9299"
       style="display:inline;fill:#e1ba14;fill-opacity:1;stroke-width:1.35084;stroke-dasharray:none" /><path
       d="M 1493.02,1852.8 1500.27,1866.56 1499.93,1871.71 1592,1877.87 1592.18,1875.27 1594.15,1845.97 1548.89,1842.93 1547.32,1842.84 1547.54,1839.54 1533.5,1838.58 1533.28,1841.88 1502.06,1839.79 1501.49,1848.38 Z"
       stroke="#ff0000"
       stroke-width="1.44"
       fill="none"
       id="path9307"
       style="display:inline;fill:#e1ba14;fill-opacity:1;stroke-width:1.35084;stroke-dasharray:none" /><path
       d="M 1478.39,1792.29 1497.27,1829.99 1501.11,1828.07 1503.18,1832.21 1524.39,1821.58 1517.89,1808.59 1525.79,1803.7 1529.82,1819.18 1570.27,1808.64 1566.44,1793.94 1570.95,1792.76 1577.98,1796.89 1578.72,1806.54 1585.6,1813.34 1595.28,1813.75 1602.85,1807.72 1604.41,1798.17 1599.33,1789.94 1590.03,1787.24 1581.25,1791.31 1574.22,1787.19 1572.43,1779.97 1574.51,1779.42 1571.73,1768.74 1520.43,1782.11 1524.14,1797.37 1515.1,1802.95 1503.44,1779.74 Z"
       stroke="#ff0000"
       stroke-width="1.44"
       fill="none"
       id="path9321"
       style="display:inline;fill:#e1ba14;fill-opacity:1;stroke-width:1.35084;stroke-dasharray:none" /><path
       d="M 1465.66,1757.51 1475.58,1769.83 1476.87,1769.63 1477.56,1774.1 1508.47,1769.29 1508.97,1772.46 1523.13,1770.26 1522.19,1764.16 1524.52,1763.8 1524.17,1761.55 1550.63,1748.37 1556.59,1760.34 1618.64,1729.43 1617.33,1726.79 1612.41,1729.24 1611.55,1727.51 1597.97,1722.95 1597.32,1721.65 1590.1,1707.16 1542.02,1731.09 1472.79,1741.77 1474.18,1750.65 Z"
       stroke="#ff0000"
       stroke-width="1.44"
       fill="none"
       id="Raman"
       style="display:inline;fill:#e1ba14;fill-opacity:1;stroke-width:1.35084;stroke-dasharray:none" /><path
       d="M 1355.3,1790.45 1367.33,1826.75 1376.07,1823.85 1392.58,1873.67 1383.84,1876.57 1395.87,1912.86 1435.59,1899.7 1423.57,1863.4 1414.82,1866.3 1407.8,1845.12 1415.72,1842.49 1421.84,1860.97 1424.02,1860.25 1425.27,1864.03 1447.51,1856.67 1444.81,1848.49 1446.98,1847.77 1443.54,1837.38 1438.62,1822.53 1433.61,1807.42 1408.86,1815.62 1410.25,1820.03 1408.47,1820.62 1413.25,1835.04 1405.33,1837.67 1398.31,1816.48 1407.05,1813.58 1395.03,1777.29 Z"
       stroke="#ff0000"
       stroke-width="1.44"
       fill="none"
       id="path9329"
       style="display:inline;fill:#e1ba14;fill-opacity:1;stroke-width:1.35084;stroke-dasharray:none" /><path
       d="M 1334.25,1656.76 1283.82,1662.91 1282.47,1663.13 1279.37,1636.61 1282.46,1634.12 1328.16,1642.62 Z"
       stroke="#ff0000"
       stroke-width="1.44"
       fill="none"
       id="path9257"
       style="display:inline;fill:#e1ba14;fill-opacity:1;stroke-width:1.35084;stroke-dasharray:none" /><path
       d="M 1425.23,1612.7 1403.42,1569.08 1476.36,1532.64 1476.42,1532.74 1519.46,1602.07 1427.26,1648.13 1418.86,1631.31 1431.4,1625.04 Z"
       stroke="#ff0000"
       stroke-width="1.44"
       fill="none"
       id="path9271"
       style="display:inline;fill:#e1ba14;fill-opacity:1;stroke-width:1.35084;stroke-dasharray:none" /><path
       d="M 1239.53,1637.14 1243.93,1674.69 1249.02,1674.09 1249.27,1676.23 1271.54,1673.63 1271.32,1671.75 1276.41,1671.15 1272.02,1633.6 1266.67,1634.23 1266.15,1629.84 1252.17,1631.48 1252.43,1633.72 1244.41,1634.66 1244.63,1636.54 Z"
       stroke="#ff0000"
       stroke-width="1.44"
       fill="none"
       id="Sculpture_Studio"
       style="display:inline;fill:#e1ba14;fill-opacity:1;stroke-width:1.35084;stroke-dasharray:none" /><path
       d="M 1282.5,1681.01 1272.84,1680.45 1265.18,1686.37 1263.48,1695.9 1268.45,1704.21 1277.71,1707.03 1286.55,1703.09 1290.45,1694.23 1287.59,1684.99 1292.62,1678.57 1299.14,1677.78 1299.74,1682.68 H 1297.57 L 1298.39,1689.41 1300.53,1689.15 1300.78,1691.24 1306.49,1690.54 1306.75,1692.68 1347.4,1687.73 1345.52,1672.43 1357.4,1668.36 1354.88,1660.96 1353.86,1660.46 1344.45,1663.69 1344.31,1662.54 1291,1669.04 1284.79,1669.79 1285.67,1676.96 Z"
       stroke="#ff0000"
       stroke-width="1.44"
       fill="none"
       id="Amrita_Shergil"
       style="display:inline;fill:#e1ba14;fill-opacity:1;stroke-width:1.35084;stroke-dasharray:none" /><path
       d="M 1276.98,1621.67 1281.4,1622.52 1280.59,1626.7 1333.07,1636.46 1334.76,1628.03 1343.42,1625.12 1343.17,1624.36 1335.68,1602.12 1334.2,1602.62 1333.97,1601.95 1331.85,1601.84 1332.15,1600.29 1310.06,1599.14 1308.5,1598.98 1288.18,1588.71 1287.38,1592.88 1285.26,1592.47 1282.3,1607.83 1279.74,1607.33 Z"
       stroke="#ff0000"
       stroke-width="1.44"
       fill="none"
       id="Painting_Studio"
       style="display:inline;fill:#e1ba14;fill-opacity:1;stroke-width:1.35084;stroke-dasharray:none" /><path
       d="M 1403.71,1659 1394.57,1633.34 1376.12,1591.97 1402.86,1585.14 1415.72,1618.03 1407.88,1621.94 1421.86,1649.93 Z"
       stroke="#ff0000"
       stroke-width="1.44"
       fill="none"
       id="path9309"
       style="display:inline;fill:#e1ba14;fill-opacity:1;stroke-width:1.35084;stroke-dasharray:none" /><path
       d="M 1211.09,2190.34 1254.57,2223.79 1267.27,2207.29 1272.66,2211.43 1272.04,2215.41 1274.15,2218.85 1278.02,2220.03 1281.71,2218.39 1287.1,2222.55 1274.41,2239.04 1296.78,2256.25 1325.71,2218.64 1317.32,2212.19 1314.44,2215.94 1300.45,2205.18 1293.37,2214.39 1290.88,2212.48 1295.07,2207.02 1292.47,2205.02 1303.28,2190.95 1286.06,2177.72 1281.76,2183.3 1289.2,2189.03 1282.82,2197.6 1280.22,2195.6 1276.03,2201.04 1273.54,2199.13 1280.62,2189.93 1267.3,2178.31 1269.52,2175.43 1254,2163.49 1251.12,2167.23 1237.14,2156.48 Z"
       stroke="#ff0000"
       stroke-width="1.44"
       fill="none"
       id="path9235"
       style="display:inline;fill:#e1ba14;fill-opacity:1;stroke-width:1.35084;stroke-dasharray:none" /><path
       d="M 1062.81,2073.68 1077.21,2085.07 1081.58,2079.52 1089.76,2085.99 1080.39,2097.86 1100.05,2113.4 1109.27,2101.73 1120.72,2110.79 1111.5,2122.44 1131.16,2137.98 1140.54,2126.13 1148.72,2132.6 1139.35,2144.45 1159.01,2159.99 1168.05,2148.56 1173.98,2153.24 1166.38,2162.86 1191.92,2183.05 1196.42,2177.34 1192.71,2174.42 1201.96,2162.71 1198.16,2159.71 1200.25,2157.06 1209.41,2164.32 1208.75,2168.26 1210.81,2171.7 1214.63,2172.91 1218.33,2171.36 1223.69,2175.59 1230.07,2167.52 1227.6,2165.56 1231.86,2160.17 1229.28,2158.14 1240.28,2144.22 1210.42,2120.62 1206.05,2126.15 1226.37,2142.2 1219.73,2150.59 1217.16,2148.56 1212.93,2153.91 1210.47,2151.96 1216.06,2144.88 1218.53,2146.83 1223.03,2141.14 1198.74,2121.92 1192.1,2130.33 1186.17,2125.63 1191.98,2118.28 1172.95,2103.22 1177.3,2097.73 1165.38,2093.41 1163.52,2095.77 1144.48,2080.73 1138.66,2088.09 1127.21,2079.03 1133.03,2071.67 1113.99,2056.63 1118.35,2051.12 1106.43,2046.81 1105.27,2048.27 1091.06,2037.03 1085.35,2044.25 1064.42,2027.72 Z"
       stroke="#ff0000"
       stroke-width="1.44"
       fill="none"
       id="path9283"
       style="display:inline;fill:#e1ba14;fill-opacity:1;stroke-width:1.35084;stroke-dasharray:none" /><path
       d="M 1305.42,2256.41 1296.15,2268.02 1315.74,2283.64 1325.17,2271.83 1333.33,2278.33 1328.93,2283.84 1343.27,2295.29 1387.67,2283.3 1366.81,2266.66 1372.56,2259.45 1358.4,2248.16 1362.06,2243.58 1350.16,2239.21 1348.28,2241.57 1329.31,2226.44 1323.46,2233.77 1317.55,2229.07 1299.5,2251.69 Z"
       stroke="#ff0000"
       stroke-width="1.44"
       fill="none"
       id="path9287"
       style="display:inline;fill:#e1ba14;fill-opacity:1;stroke-width:1.35084;stroke-dasharray:none" /><path
       d="M 1091.27,2013.98 1125.95,2041.14 1142.34,2020.21 1132.67,2012.63 1137.18,2006.86 1142.6,2011.11 1144.62,2008.52 1157.64,2018.71 1165.14,2009.13 1152.12,1998.94 1154.15,1996.36 1148.73,1992.11 1153.24,1986.35 1162.92,1993.93 1179.31,1972.98 1144.64,1945.84 1128.32,1966.84 1145.37,1980.19 1138.61,1988.83 1134.55,1988.02 1130.98,1990.11 1129.8,1994.08 1131.56,1997.82 1124.8,2006.47 1107.67,1993.05 Z"
       stroke="#ff0000"
       stroke-width="1.44"
       fill="none"
       id="path9289"
       style="display:inline;fill:#e1ba14;fill-opacity:1;stroke-width:1.35084;stroke-dasharray:none" /><path
       d="M 1227.04,2095.44 1259.39,2120.35 1271.7,2109.09 1273.92,2111.53 1278.99,2106.9 1281.11,2109.22 1269.05,2120.23 1276.19,2128.04 1281.55,2123.14 1283.66,2125.47 1281.78,2127.18 1300.28,2147.42 1302.16,2145.71 1304.26,2148.02 1298.9,2152.92 1306.04,2160.73 1318.1,2149.71 1320.22,2152.03 1315.15,2156.66 1317.37,2159.09 1308.76,2166.96 1300.28,2160.43 1295.97,2166.01 1313.26,2179.32 1325.57,2168.08 1327.79,2170.51 1332.86,2165.87 1334.98,2168.19 1322.92,2179.21 1330.05,2187.03 1335.42,2182.13 1337.53,2184.43 1335.66,2186.15 1354.15,2206.39 1356.03,2204.7 1358.28,2207.15 1352.91,2212.05 1359.91,2219.72 1371.97,2208.7 1374.09,2211.02 1369.02,2215.65 1371.24,2218.08 1362.63,2225.93 1349.19,2215.58 1344.89,2221.18 1367.13,2238.31 1379.44,2227.05 1381.66,2229.48 1386.73,2224.85 1388.85,2227.18 1376.79,2238.2 1397.94,2261.36 1403.31,2256.46 1401.19,2254.14 1412.2,2244.07 1408.26,2239.77 1414.03,2234.49 1417.97,2238.79 1428.98,2228.74 1432.17,2232.24 1437.53,2227.34 1412.12,2199.51 1406.76,2204.41 1409.95,2207.9 1396.45,2220.24 1391.86,2215.22 1393.17,2211.4 1391.68,2207.63 1388.08,2205.81 1384.16,2206.77 1379.57,2201.76 1394.94,2187.71 1357.95,2147.21 1342.58,2161.25 1337.97,2156.21 1339.28,2152.39 1337.8,2148.65 1334.2,2146.85 1330.29,2147.8 1325.7,2142.78 1341.02,2128.78 1304.06,2088.26 1288.71,2102.27 1284.12,2097.26 1285.42,2093.44 1283.94,2089.68 1280.34,2087.86 1276.42,2088.81 1271.83,2083.79 1287.2,2069.76 1268.15,2048.9 1266.28,2050.61 1260.42,2044.2 1249.41,2054.25 1259.22,2065 1253.45,2070.26 1243.64,2059.53 1230.75,2071.29 1235.79,2076.82 1237.88,2074.68 1250.39,2089.05 1245.03,2093.95 1252.17,2101.76 1264.23,2090.74 1266.35,2093.06 1261.28,2097.69 1263.5,2100.11 1254.89,2107.98 1231.34,2089.84 Z"
       stroke="#ff0000"
       stroke-width="1.44"
       fill="none"
       id="path9293"
       style="display:inline;fill:#e1ba14;fill-opacity:1;stroke-width:1.35084;stroke-dasharray:none" /><path
       d="M 1243.6,2009.53 1260.54,1989.03 1243.76,1975.16 1250.75,1966.72 1254.79,1967.63 1258.41,1965.64 1259.69,1961.69 1258.03,1957.91 1265.02,1949.44 1281.71,1963.24 1298.73,1942.82 1264.78,1914.75 1247.84,1935.25 1257.31,1943.09 1252.65,1948.72 1247.35,1944.33 1245.26,1946.87 1232.52,1936.35 1224.77,1945.72 1237.51,1956.25 1235.41,1958.77 1240.72,1963.17 1236.06,1968.81 1226.59,1960.97 1209.65,1981.49 Z"
       stroke="#ff0000"
       stroke-width="1.44"
       fill="none"
       id="path9295"
       style="display:inline;fill:#e1ba14;fill-opacity:1;stroke-width:1.35084;stroke-dasharray:none" /><path
       d="M 1152.32,1936.85 1186.8,1964.27 1203.35,1943.45 1193.73,1935.79 1198.28,1930.06 1203.67,1934.35 1205.71,1931.77 1218.65,1942.08 1226.22,1932.55 1213.29,1922.26 1215.33,1919.69 1209.94,1915.4 1214.5,1909.67 1224.12,1917.33 1240.67,1896.51 1206.19,1869.1 1189.72,1889.99 1206.67,1903.46 1199.84,1912.05 1195.79,1911.21 1192.21,1913.28 1191,1917.24 1192.73,1921 1185.91,1929.58 1168.87,1916.03 Z"
       stroke="#ff0000"
       stroke-width="1.44"
       fill="none"
       id="path9297"
       style="display:inline;fill:#e1ba14;fill-opacity:1;stroke-width:1.35084;stroke-dasharray:none" /><path
       d="M 1131.64,1381.85 1143.18,1399.35 1161.61,1450.72"
       stroke="#ff0000"
       stroke-width="1.44"
       fill="none"
       id="path9285"
       style="display:inline;fill:#e1ba14;fill-opacity:1;stroke-width:1.35084;stroke-dasharray:none" /><path
       d="M 916.544,2584.98 955.302,2585.13 955.338,2575.26 971.712,2573.89 972.542,2583.81 1011.17,2580.57 1002.62,2478.56 1025.66,2476.63 1019.17,2399.11 980.543,2402.35 981.328,2411.72 968.982,2411.68 969.018,2401.72 930.261,2401.58 929.939,2488.46 916.904,2488.43 Z"
       stroke="#ff0000"
       stroke-width="1.44"
       fill="none"
       id="path9325"
       style="display:inline;fill:#e1ba14;fill-opacity:1;stroke-width:1.35084;stroke-dasharray:none" /><path
       d="M 968.742,2834.26 1005.15,2820.97 1008.53,2830.24 1024.4,2825.97 1021.81,2816.36 1059.24,2806.29 1085.03,2902.11 1107.35,2896.11 1128.37,2974.24 1090.95,2984.31 1088.51,2975.23 1077.28,2979.32 1080.7,2988.69 1043.92,3002.12 1014.11,2920.5 1001.86,2924.96 Z"
       stroke="#ff0000"
       stroke-width="1.44"
       fill="none"
       id="path9241"
       style="display:inline;fill:#e1ba14;fill-opacity:1;stroke-width:1.35084;stroke-dasharray:none" /><path
       d="M 919.928,2619.69 957.851,2611.68 959.89,2621.35 976.202,2619.37 975.001,2609.48 1013.48,2604.8 1025.44,2703.32 1048.39,2700.53 1058.14,2780.86 1019.66,2785.54 1018.54,2776.19 1006.84,2778.66 1008.9,2788.4 970.588,2796.49 952.633,2711.48 939.879,2714.16 Z"
       stroke="#ff0000"
       stroke-width="1.44"
       fill="none"
       id="path9311"
       style="display:inline;fill:#e1ba14;fill-opacity:1;stroke-width:1.35084;stroke-dasharray:none" /><path
       d="M 1157.72,3194.63 1192.13,3176.8 1187.59,3168.02 1201.46,3159.23 1206.8,3167.63 1239.52,3146.88 1184.68,3060.44 1204.2,3048.05 1162.53,2982.36 1129.8,3003.13 1134.85,3011.07 1124.23,3016.57 1119.65,3007.72 1084.88,3025.74 1126.3,3105.67 1114.73,3111.67 Z"
       stroke="#ff0000"
       stroke-width="1.44"
       fill="none"
       id="path9313"
       style="display:inline;fill:#e1ba14;fill-opacity:1;stroke-width:1.35084;stroke-dasharray:none" /><path
       d="M 1386.96,3146.54 1348.24,3148.28 1347.8,3138.41 1331.39,3137.73 1330.96,3147.67 1292.24,3146.03 1296.58,3043.75 1273.49,3042.77 1276.78,2965.04 1315.51,2966.7 1315.11,2976.1 1327.05,2975.56 1326.6,2965.6 1365.71,2963.85 1369.75,3053.78 1382.77,3053.2 Z"
       stroke="#ff0000"
       stroke-width="1.44"
       fill="none"
       id="path9315"
       style="display:inline;fill:#e1ba14;fill-opacity:1;stroke-width:1.35084;stroke-dasharray:none" /><path
       d="M 1213.99,2669.02 1252.51,2664.5 1253.68,2674.39 1265.55,2672.99 1263.42,2662.68 1301.4,2654.8 1321.8,2753.23 1336.54,2750.16 1351.69,2823.29 1327.9,2828.21 1348.3,2926.64 1310.31,2934.51 1308.29,2924.77 1292.66,2928.01 1293.82,2937.84 1255.29,2942.38 1245.84,2862.01 1260.98,2860.23 1247.61,2746.54 1223.44,2749.39 Z"
       stroke="#ff0000"
       stroke-width="1.44"
       fill="none"
       id="path9319"
       style="display:inline;fill:#e1ba14;fill-opacity:1;stroke-width:1.35084;stroke-dasharray:none" /><path
       d="M 1201.35,2647.09 1236.4,2630.54 1232.38,2622.03 1243.6,2617.89 1247.05,2627.24 1283.78,2613.69 1252.62,2529.22 1264.85,2524.72 1232.5,2437.06 1196.14,2450.48 1199.56,2459.74 1184.7,2466.74 1180.45,2457.74 1145.4,2474.27 1189.07,2566.87 1168.16,2576.72 Z"
       stroke="#ff0000"
       stroke-width="1.44"
       fill="none"
       id="path9323"
       style="display:inline;fill:#e1ba14;fill-opacity:1;stroke-width:1.35084;stroke-dasharray:none" /><path
       d="M 1221.6,680.299 1185.79,681.543 1185.84,681.369 1187.55,681.309 1200.71,631.321 1145.79,616.86 1134.24,660.726 1135.99,661.187 1135.3,663.783 1119.79,669.444 1112.56,649.624 1111.83,649.88 1111.3,648.416 1120.35,645.114 1107.48,609.85 1068.82,623.955 1081.68,659.222 1090.73,655.923 1091.26,657.392 1090.55,657.653 1097.78,677.475 1089.45,680.511 1083.65,664.626 1075.57,667.576 1077.44,672.686 1074.06,673.919 1071.32,666.409 1049.31,674.438 1051.45,680.315 1050.05,680.828 1049.49,679.294 1048.74,679.568 1061.6,714.835 1062.36,714.56 1061.8,713.025 1063.2,712.512 1065.34,718.391 1087.35,710.361 1086.47,707.959 1097.94,703.778 1092.14,687.892 1100.46,684.852 1107.7,704.673 1108.42,704.416 1108.96,705.884 1099.91,709.183 1112.78,744.449 1151.44,730.345 1138.57,695.077 1129.53,698.377 1128.99,696.907 1129.71,696.646 1122.48,676.825 1136.26,671.798 1140.93,673.017 1138.51,682.34 1182.37,693.886 1182.85,692.082 1204.53,691.329 1205.32,713.978 1197.85,714.239 1197.67,708.924 1180.78,709.513 1181.37,726.397 1198.25,725.808 1198.07,720.493 1205.54,720.231 1206.08,735.863 1207.89,735.8 1208.23,745.424 1302.78,742.124 1302.45,732.501 1309.71,732.247 1308.16,687.712 1337.76,686.661 1337.43,678.065 1300.59,679.351 1300.53,677.545 1259.24,678.986 1259.22,678.811 Z"
       stroke="#ff0000"
       stroke-width="1.44"
       fill="none"
       id="path9239"
       style="display:inline;fill:#e1ba14;fill-opacity:1;stroke-width:1.35084;stroke-dasharray:none" /><path
       d="M 1246.62,599.643 1294.43,612.229 1295.38,639.437 1335.93,650.116 1336.14,656.027 1346.04,655.678 1346.75,652.965 1379.46,661.576 1377.64,609.499 1335.09,610.985 1333.68,570.791 1305.93,571.76 1306.58,590.611 1299.54,588.755 1304.07,571.551 1294.35,570.458 1293.65,573.098 1291.47,572.522 1292.08,570.204 1252.18,559.698 1246.31,555.577 1257.14,540.138 1212.33,508.69 1202.94,522.062 1201.43,521.613 1205.7,507.228 1205.17,502.401 1201.44,499.296 1196.61,499.786 1193.47,503.494 1189.13,517.963 1187.62,517.512 1187.05,501.189 1105.38,504.038 1106.37,532.354 1082.77,550.35 1082.26,549.68 1086.82,546.204 1073.86,529.203 1063.91,536.791 1071.83,547.171 1070.58,548.119 1066.09,542.233 1054.87,550.788 1059.36,556.676 1058.12,557.625 1049.94,546.899 1025.09,565.849 1033.27,576.573 1025.31,582.642 1042.15,604.728 1050.11,598.658 1058.29,609.382 1083.13,590.434 1069.4,572.426 1083.11,561.973 1096.58,579.635 1106.53,572.046 1093.57,555.048 1089.01,558.525 1088.51,557.875 1106.51,544.127 1189.1,541.184 1239.57,576.728 1234.39,596.421 1241.11,598.195 Z"
       stroke="#ff0000"
       stroke-width="1.44"
       fill="none"
       id="path9243"
       style="display:inline;fill:#e1ba14;fill-opacity:1;stroke-width:1.35084;stroke-dasharray:none" /><path
       d="M 932.365,590.236 936.531,590.668 937.138,584.757 963.355,569.019 969.616,579.453 974.378,606.201 970.673,609.023 969.054,624.639 976.348,625.395 972.631,661.214 965.336,660.458 963.094,682.062 972.694,674.741 980.628,696.475 975.404,697.139 977,709.736 980.287,709.326 977.162,700.758 999.17,692.728 1001.32,698.605 1002.72,698.094 1002.16,696.559 1002.91,696.286 1015.78,731.553 1015.03,731.827 1014.47,730.292 1013.06,730.806 1015.21,736.683 993.198,744.712 990.038,736.052 980.493,737.272 982.09,749.865 998.039,747.841 1007.46,773.833 1026.8,771.385 1038.53,803.546 1020.61,803.974 1023.93,813.163 962.988,855.115 962.399,850.434 957.226,851.091 940.317,717.91 919.644,712.809 Z"
       stroke="#ff0000"
       stroke-width="1.44"
       fill="none"
       id="path9247"
       style="display:inline;fill:#e1ba14;fill-opacity:1;stroke-width:1.35084;stroke-dasharray:none" /><path
       d="M 622.139,1736.91 687.374,1902.96 602.086,1936.39 536.77,1770.41 Z"
       stroke="#ff0000"
       stroke-width="1.44"
       fill="none"
       id="path9251"
       style="display:inline;fill:#e1ba14;fill-opacity:1;stroke-width:1.35084;stroke-dasharray:none" /><path
       d="M 719.358,1358.08 721.442,1313.93 720.604,1310.84 678.835,1325.02 677.333,1392.74 652.789,1392.28 612.107,1368.27 589.782,1390.97 584.471,1390.89 581.663,1516.97 549.048,1622.72 547.47,1627.98 543.454,1631.74 505.546,1666.51 500.294,1662.94 462.362,1716.67 520.61,1757.89 556.636,1706.82 581.944,1687.85 602.838,1684.68 657.209,1684.37 671.03,1685.44 670.888,1691.79 652.859,1761.3 693.712,1772.4 711.925,1697.5 Z"
       stroke="#ff0000"
       stroke-width="1.44"
       fill="none"
       id="path9253"
       style="display:inline;fill:#e1ba14;fill-opacity:1;stroke-width:1.35084;stroke-dasharray:none" /><path
       d="M 719.565,1794.82 718.893,1906.88 705.199,1912.18 689.957,1872.64 697.752,1869.69 684.852,1836.55 670.251,1799.63 690.173,1791.99 691.063,1794.25 708.73,1794.53 Z"
       stroke="#ff0000"
       stroke-width="1.44"
       fill="none"
       id="path9259"
       style="display:inline;fill:#e1ba14;fill-opacity:1;stroke-width:1.35084;stroke-dasharray:none" /><path
       d="M 631.478,1959.62 749.608,1961.15 747.03,2081.29 629.299,2078.73 Z"
       stroke="#ff0000"
       stroke-width="1.44"
       fill="none"
       id="path9261"
       style="display:inline;fill:#e1ba14;fill-opacity:1;stroke-width:1.35084;stroke-dasharray:none" /><path
       d="M 762.931,1962.47 938.548,1964.97 935.971,2085.1 760.751,2081.57 Z"
       stroke="#ff0000"
       stroke-width="1.44"
       fill="none"
       id="path9263"
       style="display:inline;fill:#e1ba14;fill-opacity:1;stroke-width:1.35084;stroke-dasharray:none" /></g><g
     id="layer2"
     style="display:inline"><path
       d="M 1998.1927,1581.8985 1938.8477,1599.779 1995.0353,1672.9233 2029.4077,1677.1717 Z"
       stroke="#00ff43"
       stroke-width="1.44"
       fill="none"
       id="path8161"
       style="display:inline;stroke-width:1.35084;stroke-dasharray:none" /><path
       d="M 1925.1664,1537.0134 1937.7832,1593.6095 1974.3927,1585.4443 1961.7759,1528.8484 Z"
       stroke="#00ff43"
       stroke-width="1.44"
       fill="none"
       id="path8163"
       style="display:inline;stroke-width:1.35084;stroke-dasharray:none" /></g><g
     id="layer1"
     style="display:inline"><path
       d="M 1707.43,1042.28 C 1707.47,1014.72 1702.44,984.831 1690.97,955.993 1679.51,927.156 1661.61,899.365 1638.77,876.522 1615.93,853.679 1588.14,835.784 1559.3,824.321 1530.46,812.858 1500.58,807.827 1473.01,807.862 1445.44,807.827 1415.56,812.858 1386.72,824.321 1357.88,835.784 1330.09,853.679 1307.25,876.522 1284.41,899.365 1266.51,927.156 1255.05,955.993 1243.59,984.831 1238.56,1014.72 1238.59,1042.28 1238.56,1069.85 1243.59,1099.73 1255.05,1128.57 1266.51,1157.41 1284.41,1185.2 1307.25,1208.04 1330.09,1230.89 1357.88,1248.78 1386.72,1260.24 1415.56,1271.71 1445.44,1276.74 1473.01,1276.7 1500.58,1276.74 1530.46,1271.71 1559.3,1260.24 1588.14,1248.78 1615.93,1230.89 1638.77,1208.04 1661.61,1185.2 1679.51,1157.41 1690.97,1128.57 1702.44,1099.73 1707.47,1069.85 1707.43,1042.28 Z"
       stroke="#00ff43"
       stroke-width="1.44"
       fill="none"
       id="path8155"
       style="display:inline;fill:#72df7a;fill-opacity:1;stroke-width:1.35084;stroke-dasharray:none" /><path
       d="M 738.372,1394.47 756.161,1394.79 766.736,1376.61 786.809,1352.44 799.363,1340.98 813.382,1330.98 829.233,1322.27 847.818,1314.86 863.819,1310.46 877.67,1308.1 892.012,1307.01 906.301,1307.1 919.716,1308.59 934.388,1311.41 954.555,1317.99 973.175,1326.8 980.429,1331.1 990.643,1338.22 998.565,1344.5 1001.56,1347.56 1011.81,1357.37 1022.79,1369.34 1034.21,1384.38 1042.34,1396.57 1049.7,1414.49 1054.83,1434.74 1057.15,1455.22 1057.3,1483.19 1056.45,1517.82 1055.75,1552.56 1054.97,1587.31 1054.21,1622.11 1053.48,1657.08 1052.69,1693.48 1051.93,1729.13 1050.91,1766.13 1048.67,1786.45 1044.46,1805.5 1037.49,1823.24 1026.69,1843.02 1014.62,1859.97 1000.51,1875.13 985.768,1887.36 968.131,1898.36 949.433,1907.21 931.431,1912.94 913.965,1916.45 897.183,1918.08 879.748,1917.87 865.772,1916.47 845.436,1911.77 819.518,1901.9 803.704,1892.06 790.598,1882.75 775.009,1868.67 752.555,1868.26 737.105,1867.85 728.875,1867.99 729.731,1829.18 730.235,1785.81 731.303,1735.04 732.436,1684.03 732.621,1668.68 733.97,1606.12 735.318,1543.28 735.558,1527.09 736.973,1462.58 737.589,1426.96 738.472,1395.66 Z"
       stroke="#00ff43"
       stroke-width="1.44"
       fill="none"
       id="path8159"
       style="display:inline;fill:#ec567a;fill-opacity:1;stroke:#ff4100;stroke-width:1.35084;stroke-dasharray:none;stroke-opacity:1" /><path
       d="M 768.305,1460.75 774.102,1428.65 781.747,1404.55 797.565,1382.52 811.725,1367.86 829.253,1356.23 841.965,1349.24 857.31,1343.13 870.279,1339.56 881.297,1337.69 893.049,1336.79 904.561,1336.86 915.255,1338.05 926.932,1340.3 943.528,1345.71 959.188,1353.12 964.307,1356.15 972.868,1362.12 988.506,1372.84 1002.14,1387.45 1009.92,1398.65 1015.29,1409.06 1021.35,1423.84 1025.47,1440.1 1027.39,1456.98 1027.52,1482.9 1026.69,1517.16 1025.99,1551.93 1025.21,1586.65 1024.44,1621.47 1023.71,1656.45 1022.92,1692.84 1022.17,1728.4 1021.18,1764.09 1019.25,1781.59 1015.89,1796.79 1010.46,1810.62 1001.41,1827.19 991.5,1841.11 980.021,1853.44 968.306,1863.16 953.839,1872.18 938.496,1879.44 923.959,1884.08 909.587,1886.96 895.918,1888.29 881.415,1888.12 870.629,1887.03 854.127,1883.22 832.806,1875.1 820.202,1867.26 793.596,1845.11 772.264,1821.06 760.004,1786.29 761.07,1735.68 762.205,1684.54 762.389,1669.18 763.736,1606.76 765.667,1543.62 766.873,1527.83 Z"
       stroke="#00ff43"
       stroke-width="0.24"
       fill="none"
       id="path8157"
       style="display:inline;fill:#ff9f7a;fill-opacity:0.905844;stroke-width:1.35084;stroke-dasharray:none" /><path
       style="opacity:0.611111;fill:#137311;fill-opacity:1;stroke:#ff5500;stroke-width:3;stroke-linecap:round;stroke-linejoin:round;stroke-dasharray:none;stroke-dashoffset:0;stroke-opacity:1;paint-order:markers stroke fill"
       d="M 772.201,1460.84 1024.44,1465.48 1015.93,1792 766.785,1790.45 Z"
       id="path23183" /><path
       style="opacity:0.611111;fill:#ff9f7a;fill-opacity:0.905844;stroke:#ff4100;stroke-width:3;stroke-linecap:round;stroke-linejoin:round;stroke-dasharray:none;stroke-dashoffset:0;stroke-opacity:1;paint-order:markers stroke fill"
       d="M 1436.2,974.973 1436.47,1125.98 1515.8,1126.53 1515.53,974.973 Z"
       id="path33133" /></g></svg>
